<?xml version="1.0" encoding="UTF-8" standalone="no"?>
<svg
   version="1.1"
   width="721"
   height="65"
   viewBox="0 0 721 65"
   xmlns:xlink="http://www.w3.org/1999/xlink"
   xmlns="http://www.w3.org/2000/svg"
   xmlns:svg="http://www.w3.org/2000/svg">
  <g id="g8">
    <path
       style="fill:#000000"
       d="M 665,32 V 0 h 10.26483 10.26483 L 693.01483,13.666936 700.5,27.333872 700.77822,13.666936 701.05644,0 H 711.02822 721 V 32 64 L 711.25,63.9965 701.5,63.993 694,50.746519 686.5,37.5 686.22097,50.75 685.94195,64 H 675.47097 665 Z"
       id="path130" />
    <path
       id="path128"
       style="fill:#000000"
       d="M 606.8457 0 L 604.00781 2.8378906 C 600.18288 6.6628191 599.75752 10.385345 600.16211 36.414062 L 600.5 58.166016 L 603.76562 61.083984 L 607.03125 64 L 627.61133 64 C 649.92633 64 652.56272 63.447733 654.91406 58.287109 C 656.47595 54.85912 656.38087 8.9319765 654.80469 5.4726562 C 652.5518 0.52809642 649.91753 0 627.47266 0 L 606.8457 0 z M 621 17 L 627.89258 17 C 633.25562 17 634.92032 17.351339 635.39258 18.582031 C 635.72643 19.452015 636 25.489966 636 32 C 636 38.510034 635.72643 44.547985 635.39258 45.417969 C 634.92032 46.648661 633.25562 47 627.89258 47 L 621 47 L 621 32 L 621 17 z " />
    <path
       style="fill:#000000"
       d="m 544.422,61.25 c -0.33886,-1.5125 -1.01992,-4.325 -1.51347,-6.25 -2.13145,-8.313233 -2.64652,-8 13.15483,-8 h 14.06336 L 569.81336,43.75 569.5,40.5 557.63334,39.965036 c -11.42781,-0.51518 -11.9548,-0.637431 -14.25,-3.305763 C 541.11963,34.027546 541,33.191377 541,20 541,6.7639016 541.11327,5.9797341 543.41149,3.3057637 L 545.82297,0.5 566.37816,0.19310444 586.93334,-0.11379113 587.45858,2.1931044 C 591.19683,18.611722 592.49851,17 575.5,17 H 561 v 4 4 h 12.07692 12.07693 l 2.99868,2.998684 2.99868,2.998683 -0.3256,14.090323 c -0.32416,14.027742 -0.33807,14.10103 -3.13137,16.501316 C 584.93217,63.962453 584.57817,64 564.96329,64 H 545.0381 Z"
       id="path124" />
    <path
       style="fill:#000000"
       d="M 475,31.965017 V -0.06996619 L 485.17365,0.21501691 495.3473,0.5 502.92365,14.254683 510.5,28.009366 510.77746,14.004683 511.05491,0 H 521.02746 531 v 32 32 h -9.93969 -9.93968 L 503.31031,50.257577 495.5,36.515153 495.22178,50.257577 494.94356,64 H 484.97178 475 Z"
       id="path122" />
    <path
       style="fill:#000000"
       d="M 426,54.078274 V 44.156548 L 416.89481,24.828274 C 411.88696,14.197723 407.1504,4.2625 406.36913,2.75 L 404.94864,0 h 12.30819 12.30818 l 3.89641,11.75 3.8964,11.75 3.31134,-10.5 C 442.4904,7.225 443.98489,1.9375 443.99025,1.25 443.99752,0.31753896 447.15882,0 456.43478,0 h 12.43478 l -4.81075,10.25 c -2.64591,5.6375 -7.34156,15.603649 -10.43478,22.146997 L 448,44.293995 V 54.146997 64 h -11 -11 z"
       id="path120" />
    <path
       id="path118"
       style="fill:#000000"
       d="M 378.41211 -0.00390625 C 376.85527 -0.0044684243 375.19081 -8.8821832e-19 373.41211 0 C 359.78921 1.4802974e-16 352.23069 0.39429815 350.47266 1.1953125 C 345.41193 3.5011363 345 5.8160937 345 32 C 345 57.313031 345.47922 60.432429 349.75 62.919922 C 350.78378 63.522046 360.14194 63.95079 372.61523 63.96875 C 392.39793 63.99724 393.89376 63.871486 396.33008 61.955078 C 400.28132 58.847027 400.98828 54.300683 400.98828 32 C 400.98828 1.0399569 401.76477 0.0045263647 378.41211 -0.00390625 z M 365.5 17.5 L 372.5 17.5 L 379.5 17.5 L 379.5 32 L 379.5 46.5 L 372.73633 46.796875 C 367.77473 47.01401 365.8341 46.733797 365.45508 45.746094 C 365.17092 45.005544 365.06452 38.34647 365.21875 30.949219 L 365.5 17.5 z " />
    <path
       style="fill:#000000"
       d="M 287.6563,62.867465 C 284.33253,60.935401 283,55.688228 283,44.532119 V 34 h 9.95431 9.95431 l 0.29569,6.75 0.29569,6.75 h 5.5 5.5 L 314.77605,32.25 315.05209,17 h -9.02604 c -10.12543,0 -9.811,0.314686 -7.99351,-8 2.22138,-10.1624277 -0.36006,-9 19.98651,-9 H 336 l -0.0596,25.25 c -0.0328,13.8875 -0.42409,27.470828 -0.86957,30.185172 -1.37317,8.366928 -1.9778,8.569833 -25.4316,8.534419 -12.45474,-0.01881 -20.84272,-0.439341 -21.98292,-1.102126 z"
       id="path114" />
    <path
       style="fill:#000000"
       d="M 182,32 V 0 h 12.89726 12.89725 l 5.35275,12.574251 5.35274,12.57425 2.5,-5.325476 c 1.375,-2.929011 3.93682,-8.587424 5.69294,-12.5742503 L 229.88588,0 H 242.44294 255 v 32 32 h -9.97395 -9.97396 L 234.77605,48.75 234.5,33.5 226.58137,48.8997 218.66274,64.2994 211.08137,49.3997 203.5,34.5 203.22327,49.25 202.94653,64 H 192.47327 182 Z"
       id="path112" />
    <path
       id="path110"
       style="fill:#000000"
       d="M 158.9082 -0.052734375 L 144.27148 0.22265625 L 129.63477 0.5 L 121.82617 31 C 117.53123 47.775 114.01281 62.0625 114.00781 62.75 C 114.00138 63.670345 116.73971 64 124.38867 64 L 134.77734 64 L 135.44141 60.460938 L 136.10547 56.919922 L 144.26758 57.210938 L 152.42969 57.5 L 153.35938 60.75 L 154.28906 64 L 164.64453 64 C 170.33997 64 175 63.697347 175 63.328125 C 175 62.794593 164.49685 21.34972 159.89453 3.7226562 L 158.9082 -0.052734375 z M 144.38281 18.300781 C 144.62525 18.421014 145.74056 23.222631 146.91406 29.228516 C 148.12543 35.428139 149.34476 41.2875 149.625 42.25 C 150.06702 43.768127 149.39807 44 144.56836 44 C 141.50629 44 139 43.836084 139 43.636719 C 139 42.548894 144.07116 18.596805 144.36328 18.304688 C 144.36926 18.298708 144.37499 18.296903 144.38281 18.300781 z " />
    <path
       style="fill:#000000"
       d="M 61,32 V 0 h 21.799924 21.799926 l 1.26757,6.25 c 0.69716,3.4375 1.51098,7.2625 1.80848,8.5 0.54082,2.249606 0.53854,2.25 -13.067492,2.25 H 81 v 4 4 H 92.5 104 V 32.5 40 H 92.5 81 v 3.5 3.5 h 13.5 c 7.425,0 13.49749,0.3375 13.49442,0.75 -0.003,0.4125 -0.42426,2.325 -0.93598,4.25 -0.51172,1.925 -1.42656,5.4125 -2.03297,7.75 L 103.92291,64 H 82.461456 61 Z"
       id="path106" />
    <path
       style="fill:#000000"
       d="M 16,40.5 V 17 H 8.025 0.05 L 0.69405802,13.75 C 1.0482899,11.9625 1.835065,8.25 2.4424471,5.5 l 1.104331,-5 H 26.980967 50.415155 L 52.064302,8.75 53.713448,17 H 45.856724 38 V 40.5 64 H 27 16 Z"
       id="path12" />
  </g>
</svg>
